<svg xmlns="http://www.w3.org/2000/svg" width="1200" height="630" viewBox="0 0 1200 630" role="img" aria-labelledby="title desc">
  <title id="title">Street Empire preview</title>
  <desc id="desc">A dark Street Empire interface preview with stats, territory, and leaderboard panels.</desc>
  <defs>
    <linearGradient id="bg" x1="0" y1="0" x2="1" y2="1">
      <stop offset="0" stop-color="#151b1c"/>
      <stop offset=".52" stop-color="#0e1111"/>
      <stop offset="1" stop-color="#1d1712"/>
    </linearGradient>
    <linearGradient id="bar" x1="0" y1="0" x2="1" y2="0">
      <stop offset="0" stop-color="#daab5b"/>
      <stop offset="1" stop-color="#4fbbb8"/>
    </linearGradient>
  </defs>
  <rect width="1200" height="630" fill="url(#bg)"/>
  <rect x="64" y="64" width="96" height="96" rx="14" fill="none" stroke="#daab5b" stroke-width="4"/>
  <text x="112" y="126" text-anchor="middle" font-family="Arial, sans-serif" font-size="42" font-weight="700" fill="#daab5b">SE</text>
  <text x="64" y="220" font-family="Arial, sans-serif" font-size="82" font-weight="800" fill="#f5f0e6">Street Empire</text>
  <text x="68" y="270" font-family="Arial, sans-serif" font-size="28" fill="#b8c2bd">Crews, markets, territory, and rank in a live browser city.</text>
  <g transform="translate(670 68)">
    <rect width="442" height="232" rx="18" fill="#121616" stroke="#34403d"/>
    <circle cx="28" cy="28" r="7" fill="#596561"/>
    <circle cx="52" cy="28" r="7" fill="#596561"/>
    <circle cx="76" cy="28" r="7" fill="#596561"/>
    <rect x="32" y="64" width="170" height="74" rx="10" fill="#1b2222" stroke="#34403d"/>
    <rect x="226" y="64" width="170" height="74" rx="10" fill="#1b2222" stroke="#34403d"/>
    <rect x="32" y="160" width="364" height="18" rx="9" fill="#24302e"/>
    <rect x="32" y="160" width="248" height="18" rx="9" fill="url(#bar)"/>
    <text x="52" y="106" font-family="Arial, sans-serif" font-size="24" font-weight="700" fill="#f5f0e6">Top House</text>
    <text x="246" y="106" font-family="Arial, sans-serif" font-size="24" font-weight="700" fill="#f5f0e6">$1.2M</text>
  </g>
  <g transform="translate(650 330)">
    <rect width="230" height="190" rx="18" fill="#121616" stroke="#34403d"/>
    <g transform="translate(26 28)">
      <rect width="42" height="36" rx="6" fill="#23403e"/>
      <rect x="52" width="42" height="36" rx="6" fill="#251d18"/>
      <rect x="104" width="42" height="36" rx="6" fill="#4b2d2d"/>
      <rect y="48" width="42" height="36" rx="6" fill="#251d18"/>
      <rect x="52" y="48" width="42" height="36" rx="6" fill="#23403e"/>
      <rect x="104" y="48" width="42" height="36" rx="6" fill="#251d18"/>
      <rect y="96" width="42" height="36" rx="6" fill="#251d18"/>
      <rect x="52" y="96" width="42" height="36" rx="6" fill="#4b2d2d"/>
      <rect x="104" y="96" width="42" height="36" rx="6" fill="#23403e"/>
    </g>
  </g>
  <g transform="translate(914 330)">
    <rect width="230" height="190" rx="18" fill="#121616" stroke="#34403d"/>
    <text x="28" y="54" font-family="Arial, sans-serif" font-size="23" font-weight="700" fill="#f5f0e6">Top Houses</text>
    <text x="28" y="92" font-family="Arial, sans-serif" font-size="18" fill="#b8c2bd">#1 Crowned</text>
    <text x="28" y="124" font-family="Arial, sans-serif" font-size="18" fill="#b8c2bd">#2 Uptown</text>
    <text x="28" y="156" font-family="Arial, sans-serif" font-size="18" fill="#b8c2bd">#3 Harbor</text>
  </g>
</svg>
